<svg width="30" height="30" viewBox="0 0 30 30" fill="none" xmlns="http://www.w3.org/2000/svg">
<g clip-path="url(#clip0_10_5)">
<path d="M22.4288 3.07729C21.4555 2.09866 20.2977 1.32279 19.0226 0.794578C17.7474 0.26637 16.3802 -0.00368688 15 3.92803e-05C13.6198 -0.00374739 12.2525 0.266281 10.9773 0.794494C9.70218 1.32271 8.54446 2.09861 7.5712 3.07729C3.899 6.74894 3.44264 13.6573 6.58289 17.8428L15 29.9984L23.4045 17.8598C26.5573 13.6573 26.101 6.74894 22.4288 3.07729V3.07729ZM15.097 14.244C12.9828 14.244 11.262 12.5232 11.262 10.4091C11.262 8.29496 12.9828 6.57418 15.097 6.57418C17.2111 6.57418 18.9319 8.29496 18.9319 10.4091C18.9319 12.5232 17.2111 14.244 15.097 14.244V14.244Z" fill="#C9E265"/>
</g>
<defs>
<clipPath id="clip0_10_5">
<rect width="30" height="30" fill="white"/>
</clipPath>
</defs>
</svg>
